<svg width="45" height="15" viewBox="0 0 45 15" fill="none" xmlns="http://www.w3.org/2000/svg">
<g filter="url(#filter0_i_95_935)">
<rect y="1" width="45" height="14" rx="1" fill="url(#paint0_linear_95_935)"/>
</g>
<rect x="0.25" y="1.25" width="44.5" height="13.5" rx="0.75" stroke="white" stroke-width="0.5"/>
<path d="M3.05682 3.27273H4.31818L7.28409 10.517H7.38636L10.3523 3.27273H11.6136V12H10.625V5.36932H10.5398L7.8125 12H6.85795L4.13068 5.36932H4.04545V12H3.05682V3.27273Z" fill="white"/>
<path d="M11.0568 12V3.27273H16.2898V4.21023H12.1136V7.15909H15.8977V8.09659H12.1136V12H11.0568ZM19.8896 12.1534C19.4748 12.1534 19.0984 12.0753 18.7603 11.919C18.4222 11.7599 18.1538 11.5312 17.9549 11.233C17.756 10.9318 17.6566 10.5682 17.6566 10.142C17.6566 9.76705 17.7305 9.46307 17.8782 9.23011C18.0259 8.99432 18.2234 8.80966 18.4705 8.67614C18.7177 8.54261 18.9904 8.44318 19.2887 8.37784C19.5898 8.30966 19.8924 8.25568 20.1964 8.21591C20.5941 8.16477 20.9165 8.12642 21.1637 8.10085C21.4137 8.07244 21.5955 8.02557 21.7092 7.96023C21.8256 7.89489 21.8839 7.78125 21.8839 7.61932V7.58523C21.8839 7.16477 21.7688 6.83807 21.5387 6.60511C21.3114 6.37216 20.9663 6.25568 20.5032 6.25568C20.0231 6.25568 19.6467 6.3608 19.3739 6.57102C19.1012 6.78125 18.9094 7.00568 18.7987 7.24432L17.8441 6.90341C18.0146 6.50568 18.2418 6.19602 18.5259 5.97443C18.8129 5.75 19.1254 5.59375 19.4634 5.50568C19.8043 5.41477 20.1396 5.36932 20.4691 5.36932C20.6793 5.36932 20.9208 5.39489 21.1935 5.44602C21.4691 5.49432 21.7347 5.59517 21.9904 5.74858C22.2489 5.90199 22.4634 6.13352 22.6339 6.44318C22.8043 6.75284 22.8896 7.16761 22.8896 7.6875V12H21.8839V11.1136H21.8327C21.7646 11.2557 21.6509 11.4077 21.4918 11.5696C21.3327 11.7315 21.1211 11.8693 20.8569 11.983C20.5927 12.0966 20.2702 12.1534 19.8896 12.1534ZM20.043 11.25C20.4407 11.25 20.7759 11.1719 21.0487 11.0156C21.3242 10.8594 21.5316 10.6577 21.6708 10.4105C21.8129 10.1634 21.8839 9.90341 21.8839 9.63068V8.71023C21.8413 8.76136 21.7475 8.80824 21.6026 8.85085C21.4606 8.89062 21.2958 8.92614 21.1083 8.95739C20.9237 8.9858 20.7433 9.01136 20.5671 9.03409C20.3938 9.05398 20.2532 9.07102 20.1452 9.08523C19.8839 9.11932 19.6396 9.17472 19.4123 9.25142C19.1879 9.32528 19.006 9.4375 18.8668 9.58807C18.7305 9.7358 18.6623 9.9375 18.6623 10.1932C18.6623 10.5426 18.7915 10.8068 19.0501 10.9858C19.3114 11.1619 19.6424 11.25 20.043 11.25ZM24.7251 12V5.45455H25.7308V12H24.7251ZM25.2365 4.36364C25.0405 4.36364 24.8714 4.29688 24.7294 4.16335C24.5902 4.02983 24.5206 3.86932 24.5206 3.68182C24.5206 3.49432 24.5902 3.33381 24.7294 3.20028C24.8714 3.06676 25.0405 3 25.2365 3C25.4325 3 25.6001 3.06676 25.7393 3.20028C25.8814 3.33381 25.9524 3.49432 25.9524 3.68182C25.9524 3.86932 25.8814 4.02983 25.7393 4.16335C25.6001 4.29688 25.4325 4.36364 25.2365 4.36364ZM32.2092 6.92045L31.3058 7.17614C31.2489 7.02557 31.1651 6.87926 31.0543 6.73722C30.9464 6.59233 30.7987 6.47301 30.6112 6.37926C30.4237 6.28551 30.1836 6.23864 29.891 6.23864C29.4904 6.23864 29.1566 6.33097 28.8896 6.51562C28.6254 6.69744 28.4933 6.92898 28.4933 7.21023C28.4933 7.46023 28.5842 7.65767 28.766 7.80256C28.9478 7.94744 29.2319 8.06818 29.6183 8.16477L30.5898 8.40341C31.1751 8.54545 31.6112 8.76278 31.8981 9.0554C32.185 9.34517 32.3285 9.71875 32.3285 10.1761C32.3285 10.5511 32.2205 10.8864 32.0046 11.1818C31.7915 11.4773 31.4933 11.7102 31.1097 11.8807C30.7262 12.0511 30.2802 12.1364 29.7717 12.1364C29.104 12.1364 28.5515 11.9915 28.114 11.7017C27.6765 11.4119 27.3995 10.9886 27.283 10.4318L28.2376 10.1932C28.3285 10.5455 28.5004 10.8097 28.7532 10.9858C29.0089 11.1619 29.3427 11.25 29.7546 11.25C30.2234 11.25 30.5955 11.1506 30.8711 10.9517C31.1495 10.75 31.2887 10.5085 31.2887 10.2273C31.2887 10 31.2092 9.80966 31.0501 9.65625C30.891 9.5 30.6467 9.38352 30.3171 9.30682L29.2262 9.05114C28.6268 8.90909 28.1864 8.68892 27.9052 8.39062C27.6268 8.08949 27.4876 7.71307 27.4876 7.26136C27.4876 6.89205 27.5913 6.56534 27.7987 6.28125C28.0089 5.99716 28.2944 5.77415 28.6552 5.61222C29.0188 5.45028 29.4308 5.36932 29.891 5.36932C30.5387 5.36932 31.0472 5.51136 31.4165 5.79545C31.7887 6.07955 32.0529 6.45455 32.2092 6.92045ZM35.7685 12.1534C35.3537 12.1534 34.9773 12.0753 34.6392 11.919C34.3011 11.7599 34.0327 11.5312 33.8338 11.233C33.6349 10.9318 33.5355 10.5682 33.5355 10.142C33.5355 9.76705 33.6094 9.46307 33.7571 9.23011C33.9048 8.99432 34.1023 8.80966 34.3494 8.67614C34.5966 8.54261 34.8693 8.44318 35.1676 8.37784C35.4688 8.30966 35.7713 8.25568 36.0753 8.21591C36.473 8.16477 36.7955 8.12642 37.0426 8.10085C37.2926 8.07244 37.4744 8.02557 37.5881 7.96023C37.7045 7.89489 37.7628 7.78125 37.7628 7.61932V7.58523C37.7628 7.16477 37.6477 6.83807 37.4176 6.60511C37.1903 6.37216 36.8452 6.25568 36.3821 6.25568C35.902 6.25568 35.5256 6.3608 35.2528 6.57102C34.9801 6.78125 34.7884 7.00568 34.6776 7.24432L33.723 6.90341C33.8935 6.50568 34.1207 6.19602 34.4048 5.97443C34.6918 5.75 35.0043 5.59375 35.3423 5.50568C35.6832 5.41477 36.0185 5.36932 36.348 5.36932C36.5582 5.36932 36.7997 5.39489 37.0724 5.44602C37.348 5.49432 37.6136 5.59517 37.8693 5.74858C38.1278 5.90199 38.3423 6.13352 38.5128 6.44318C38.6832 6.75284 38.7685 7.16761 38.7685 7.6875V12H37.7628V11.1136H37.7116C37.6435 11.2557 37.5298 11.4077 37.3707 11.5696C37.2116 11.7315 37 11.8693 36.7358 11.983C36.4716 12.0966 36.1491 12.1534 35.7685 12.1534ZM35.9219 11.25C36.3196 11.25 36.6548 11.1719 36.9276 11.0156C37.2031 10.8594 37.4105 10.6577 37.5497 10.4105C37.6918 10.1634 37.7628 9.90341 37.7628 9.63068V8.71023C37.7202 8.76136 37.6264 8.80824 37.4815 8.85085C37.3395 8.89062 37.1747 8.92614 36.9872 8.95739C36.8026 8.9858 36.6222 9.01136 36.446 9.03409C36.2727 9.05398 36.1321 9.07102 36.0241 9.08523C35.7628 9.11932 35.5185 9.17472 35.2912 9.25142C35.0668 9.32528 34.8849 9.4375 34.7457 9.58807C34.6094 9.7358 34.5412 9.9375 34.5412 10.1932C34.5412 10.5426 34.6705 10.8068 34.929 10.9858C35.1903 11.1619 35.5213 11.25 35.9219 11.25ZM41.6097 3.27273V12H40.604V3.27273H41.6097Z" fill="white"/>
<defs>
<filter id="filter0_i_95_935" x="0" y="1" width="45" height="38" filterUnits="userSpaceOnUse" color-interpolation-filters="sRGB">
<feFlood flood-opacity="0" result="BackgroundImageFix"/>
<feBlend mode="normal" in="SourceGraphic" in2="BackgroundImageFix" result="shape"/>
<feColorMatrix in="SourceAlpha" type="matrix" values="0 0 0 0 0 0 0 0 0 0 0 0 0 0 0 0 0 0 127 0" result="hardAlpha"/>
<feMorphology radius="12" operator="dilate" in="SourceAlpha" result="effect1_innerShadow_95_935"/>
<feOffset dy="24"/>
<feGaussianBlur stdDeviation="24"/>
<feComposite in2="hardAlpha" operator="arithmetic" k2="-1" k3="1"/>
<feColorMatrix type="matrix" values="0 0 0 0 0 0 0 0 0 0 0 0 0 0 0 0 0 0 0.1 0"/>
<feBlend mode="normal" in2="shape" result="effect1_innerShadow_95_935"/>
</filter>
<linearGradient id="paint0_linear_95_935" x1="-3.35276e-07" y1="8" x2="45" y2="8" gradientUnits="userSpaceOnUse">
<stop stop-color="#6941FF"/>
<stop offset="1" stop-color="#6941FF" stop-opacity="0.34"/>
</linearGradient>
</defs>
</svg>
