<svg width="47" height="15" viewBox="0 0 47 15" fill="none" xmlns="http://www.w3.org/2000/svg">
<g filter="url(#filter0_i_95_935)">
<rect width="47" height="15" rx="1" fill="#5C5470"/>
</g>
<path d="M2.74938 3.27273H5.36159L7.5775 8.67614H7.67978L9.89569 3.27273H12.5079V12H10.4539V6.6392H10.3815L8.28489 11.9446H6.97239L4.8758 6.60938H4.80336V12H2.74938V3.27273Z" fill="#352F44"/>
<path d="M19.2166 12.1108C18.799 12.1108 18.4283 12.0412 18.1044 11.902C17.7834 11.7599 17.5291 11.5469 17.3416 11.2628C17.157 10.9759 17.0646 10.6165 17.0646 10.1847C17.0646 9.82102 17.1286 9.5142 17.2564 9.2642C17.3842 9.0142 17.5604 8.81108 17.7848 8.65483C18.0092 8.49858 18.2678 8.38068 18.5604 8.30114C18.853 8.21875 19.1655 8.16335 19.4979 8.13494C19.87 8.10085 20.1697 8.06534 20.397 8.02841C20.6243 7.98864 20.7891 7.93324 20.8913 7.86222C20.9964 7.78835 21.049 7.68466 21.049 7.55114V7.52983C21.049 7.31108 20.9737 7.14205 20.8232 7.02273C20.6726 6.90341 20.4695 6.84375 20.2138 6.84375C19.9382 6.84375 19.7166 6.90341 19.549 7.02273C19.3814 7.14205 19.2749 7.30682 19.2294 7.51705L17.3075 7.44886C17.3643 7.05114 17.5107 6.69602 17.7464 6.38352C17.9851 6.06818 18.3118 5.82102 18.7266 5.64205C19.1442 5.46023 19.6456 5.36932 20.2308 5.36932C20.6484 5.36932 21.0334 5.41903 21.3857 5.51847C21.7379 5.61506 22.0447 5.7571 22.3061 5.9446C22.5675 6.12926 22.7692 6.35653 22.9112 6.62642C23.0561 6.89631 23.1286 7.20455 23.1286 7.55114V12H21.1683V11.0881H21.1172C21.0007 11.3097 20.8516 11.4972 20.6697 11.6506C20.4908 11.804 20.2791 11.919 20.0348 11.9957C19.7933 12.0724 19.5206 12.1108 19.2166 12.1108ZM19.8601 10.7472C20.0845 10.7472 20.2862 10.7017 20.4652 10.6108C20.647 10.5199 20.7919 10.3949 20.8999 10.2358C21.0078 10.0739 21.0618 9.88636 21.0618 9.6733V9.05114C21.0021 9.08239 20.9297 9.1108 20.8445 9.13636C20.7621 9.16193 20.6712 9.18608 20.5717 9.20881C20.4723 9.23153 20.37 9.25142 20.2649 9.26847C20.1598 9.28551 20.0589 9.30114 19.9624 9.31534C19.7663 9.34659 19.5987 9.39489 19.4595 9.46023C19.3232 9.52557 19.218 9.6108 19.1442 9.71591C19.0732 9.81818 19.0376 9.94034 19.0376 10.0824C19.0376 10.2983 19.1143 10.4631 19.2678 10.5767C19.424 10.6903 19.6214 10.7472 19.8601 10.7472ZM24.4027 12V5.45455H26.4865V12H24.4027ZM25.4467 4.69176C25.1541 4.69176 24.9027 4.59517 24.6925 4.40199C24.4822 4.20597 24.3771 3.97017 24.3771 3.6946C24.3771 3.42187 24.4822 3.18892 24.6925 2.99574C24.9027 2.79972 25.1541 2.7017 25.4467 2.7017C25.7422 2.7017 25.9936 2.79972 26.201 2.99574C26.4112 3.18892 26.5163 3.42187 26.5163 3.6946C26.5163 3.97017 26.4112 4.20597 26.201 4.40199C25.9936 4.59517 25.7422 4.69176 25.4467 4.69176ZM33.5273 7.45312L31.614 7.50426C31.5941 7.3679 31.5401 7.24716 31.4521 7.14205C31.364 7.03409 31.2489 6.95028 31.1069 6.89062C30.9677 6.82812 30.8058 6.79688 30.6211 6.79688C30.3796 6.79688 30.1737 6.84517 30.0032 6.94176C29.8356 7.03835 29.7532 7.16903 29.756 7.33381C29.7532 7.46165 29.8043 7.57244 29.9094 7.66619C30.0174 7.75994 30.2092 7.83523 30.4847 7.89205L31.7461 8.13068C32.3995 8.25568 32.8853 8.46307 33.2035 8.75284C33.5245 9.04261 33.6864 9.42614 33.6893 9.90341C33.6864 10.3523 33.5529 10.7429 33.2887 11.0753C33.0273 11.4077 32.6694 11.6662 32.2148 11.8509C31.7603 12.0327 31.2404 12.1236 30.6552 12.1236C29.7205 12.1236 28.9833 11.9318 28.4435 11.5483C27.9066 11.1619 27.5998 10.6449 27.5231 9.99716L29.5813 9.94602C29.6268 10.1847 29.7447 10.3665 29.935 10.4915C30.1254 10.6165 30.3683 10.679 30.6637 10.679C30.9308 10.679 31.1481 10.6293 31.3157 10.5298C31.4833 10.4304 31.5685 10.2983 31.5714 10.1335C31.5685 9.9858 31.5032 9.8679 31.3754 9.77983C31.2475 9.68892 31.0472 9.6179 30.7745 9.56676L29.6325 9.34943C28.9762 9.23011 28.4876 9.00994 28.1665 8.68892C27.8455 8.36506 27.6864 7.95312 27.6893 7.45312C27.6864 7.01562 27.8029 6.64205 28.0387 6.33239C28.2745 6.01989 28.6097 5.78125 29.0444 5.61648C29.479 5.4517 29.9918 5.36932 30.5827 5.36932C31.4691 5.36932 32.168 5.5554 32.6793 5.92756C33.1907 6.29687 33.4734 6.8054 33.5273 7.45312ZM36.5604 12.1108C36.1428 12.1108 35.772 12.0412 35.4482 11.902C35.1271 11.7599 34.8729 11.5469 34.6854 11.2628C34.5007 10.9759 34.4084 10.6165 34.4084 10.1847C34.4084 9.82102 34.4723 9.5142 34.6001 9.2642C34.728 9.0142 34.9041 8.81108 35.1286 8.65483C35.353 8.49858 35.6115 8.38068 35.9041 8.30114C36.1967 8.21875 36.5092 8.16335 36.8416 8.13494C37.2138 8.10085 37.5135 8.06534 37.7408 8.02841C37.968 7.98864 38.1328 7.93324 38.2351 7.86222C38.3402 7.78835 38.3928 7.68466 38.3928 7.55114V7.52983C38.3928 7.31108 38.3175 7.14205 38.1669 7.02273C38.0163 6.90341 37.8132 6.84375 37.5575 6.84375C37.282 6.84375 37.0604 6.90341 36.8928 7.02273C36.7251 7.14205 36.6186 7.30682 36.5732 7.51705L34.6513 7.44886C34.7081 7.05114 34.8544 6.69602 35.0902 6.38352C35.3288 6.06818 35.6555 5.82102 36.0703 5.64205C36.4879 5.46023 36.9893 5.36932 37.5746 5.36932C37.9922 5.36932 38.3771 5.41903 38.7294 5.51847C39.0817 5.61506 39.3885 5.7571 39.6499 5.9446C39.9112 6.12926 40.1129 6.35653 40.255 6.62642C40.3999 6.89631 40.4723 7.20455 40.4723 7.55114V12H38.5121V11.0881H38.4609C38.3445 11.3097 38.1953 11.4972 38.0135 11.6506C37.8345 11.804 37.6229 11.919 37.3786 11.9957C37.1371 12.0724 36.8643 12.1108 36.5604 12.1108ZM37.2038 10.7472C37.4283 10.7472 37.63 10.7017 37.8089 10.6108C37.9908 10.5199 38.1357 10.3949 38.2436 10.2358C38.3516 10.0739 38.4055 9.88636 38.4055 9.6733V9.05114C38.3459 9.08239 38.2734 9.1108 38.1882 9.13636C38.1058 9.16193 38.0149 9.18608 37.9155 9.20881C37.8161 9.23153 37.7138 9.25142 37.6087 9.26847C37.5036 9.28551 37.4027 9.30114 37.3061 9.31534C37.1101 9.34659 36.9425 9.39489 36.8033 9.46023C36.6669 9.52557 36.5618 9.6108 36.4879 9.71591C36.4169 9.81818 36.3814 9.94034 36.3814 10.0824C36.3814 10.2983 36.4581 10.4631 36.6115 10.5767C36.7678 10.6903 36.9652 10.7472 37.2038 10.7472ZM43.8303 3.27273V12H41.7464V3.27273H43.8303Z" fill="white"/>
<path d="M11.5012 12V3.27273H16.7341V4.21023H12.558V7.15909H16.3421V8.09659H12.558V12H11.5012Z" fill="#352F44"/>
<defs>
<filter id="filter0_i_95_935" x="0" y="0" width="47" height="39" filterUnits="userSpaceOnUse" color-interpolation-filters="sRGB">
<feFlood flood-opacity="0" result="BackgroundImageFix"/>
<feBlend mode="normal" in="SourceGraphic" in2="BackgroundImageFix" result="shape"/>
<feColorMatrix in="SourceAlpha" type="matrix" values="0 0 0 0 0 0 0 0 0 0 0 0 0 0 0 0 0 0 127 0" result="hardAlpha"/>
<feMorphology radius="12" operator="dilate" in="SourceAlpha" result="effect1_innerShadow_95_935"/>
<feOffset dy="24"/>
<feGaussianBlur stdDeviation="24"/>
<feComposite in2="hardAlpha" operator="arithmetic" k2="-1" k3="1"/>
<feColorMatrix type="matrix" values="0 0 0 0 0 0 0 0 0 0 0 0 0 0 0 0 0 0 0.1 0"/>
<feBlend mode="normal" in2="shape" result="effect1_innerShadow_95_935"/>
</filter>
</defs>
</svg>
